<?xml version="1.0" encoding="iso-8859-1"?>
<!-- Generator: Adobe Illustrator 19.0.0, SVG Export Plug-In . SVG Version: 6.00 Build 0)  -->
<svg xmlns="http://www.w3.org/2000/svg" xmlns:xlink="http://www.w3.org/1999/xlink" version="1.1" id="Capa_1" x="0px" y="0px" viewBox="0 0 512 512" style="enable-background:new 0 0 512 512;" xml:space="preserve">
<g>
	<g>
		<path d="M504.075,182.761c-4.878-2.607-10.825-2.314-15.396,0.747l-86.221,57.48H360v-15c0-20.891-14.372-38.34-33.702-43.389    c-18.759,17.468-43.707,28.389-71.298,28.389c-28.499,0-54.313-11.501-73.251-30h-3.497c-18.939,18.499-44.753,30-73.251,30    c-27.59,0-52.538-10.92-71.298-28.389C14.372,187.649,0,205.099,0,225.989v210c0,24.814,20.186,45,45,45h270    c24.814,0,45-20.186,45-45v-15h42.459l86.221,57.48c9.962,6.641,23.32-0.508,23.32-12.48v-270    C512,190.452,508.953,185.369,504.075,182.761z M233.32,343.47l-90,60c-9.962,6.641-23.32-0.508-23.32-12.48v-120    c0-11.985,13.384-19.094,23.32-12.48l90,60C242.218,324.441,242.218,337.537,233.32,343.47z M285,270.989c-8.284,0-15-6.716-15-15    c0-8.286,6.716-15,15-15s15,6.714,15,15C300,264.273,293.284,270.989,285,270.989z M392,390.989h-32v-120h32V390.989z"/>
	</g>
</g>
<g>
	<g>
		<polygon points="150,299.012 150,362.967 197.959,330.989   "/>
	</g>
</g>
<g>
	<g>
		<path d="M105,30.989c-41.353,0-75,33.647-75,75c0,41.353,33.647,75,75,75s75-33.647,75-75C180,64.636,146.353,30.989,105,30.989z"/>
	</g>
</g>
<g>
	<g>
		<path d="M255,30.989c-41.353,0-75,33.647-75,75c0,41.353,33.647,75,75,75c41.353,0,75-33.647,75-75    C330,64.636,296.353,30.989,255,30.989z"/>
	</g>
</g>
<g>
</g>
<g>
</g>
<g>
</g>
<g>
</g>
<g>
</g>
<g>
</g>
<g>
</g>
<g>
</g>
<g>
</g>
<g>
</g>
<g>
</g>
<g>
</g>
<g>
</g>
<g>
</g>
<g>
</g>
</svg>
