<?xml version="1.0" encoding="iso-8859-1"?>
<!-- Generator: Adobe Illustrator 19.0.0, SVG Export Plug-In . SVG Version: 6.00 Build 0)  -->
<svg xmlns="http://www.w3.org/2000/svg" xmlns:xlink="http://www.w3.org/1999/xlink" version="1.1" id="Capa_1" x="0px" y="0px" viewBox="0 0 512 512" style="enable-background:new 0 0 512 512;" xml:space="preserve">
<g>
	<g>
		<path d="M367.708,1.765C365.666,0.725,363.447,0,360.995,0H151.005C84.667,0,31.01,53.673,31.01,119.995v376.983    c0,12.798,15.104,19.726,24.755,11.381l95.24-81.617l95.24,81.617c9.64,8.314,24.755,1.463,24.755-11.381V134.994H465.99    c8.291,0,14.999-6.709,14.999-14.999C480.99,60.537,437.331,5.444,367.708,1.765z M196.003,330.985h-89.996    c-8.291,0-14.999-6.709-14.999-14.999c0-8.291,6.709-14.999,14.999-14.999h89.996c8.291,0,14.999,6.709,14.999,14.999    C211.002,324.276,204.293,330.985,196.003,330.985z M196.003,240.989h-89.996c-8.291,0-14.999-6.709-14.999-14.999    c0-8.291,6.709-14.999,14.999-14.999h89.996c8.291,0,14.999,6.709,14.999,14.999C211.002,234.28,204.293,240.989,196.003,240.989z     M196.003,149.993h-89.996c-8.291,0-14.999-6.709-14.999-14.999c0-8.291,6.709-14.999,14.999-14.999h89.996    c8.291,0,14.999,6.709,14.999,14.999C211.002,143.285,204.293,149.993,196.003,149.993z M272.23,104.995    c3.062-18.339,11.718-35.227,25.121-48.645c34.012-33.982,93.277-33.982,127.289,0c13.402,13.417,22.059,30.306,25.121,48.645    H272.23z"/>
	</g>
</g>
<g>
</g>
<g>
</g>
<g>
</g>
<g>
</g>
<g>
</g>
<g>
</g>
<g>
</g>
<g>
</g>
<g>
</g>
<g>
</g>
<g>
</g>
<g>
</g>
<g>
</g>
<g>
</g>
<g>
</g>
</svg>
