<?xml version="1.0" encoding="iso-8859-1"?>
<!-- Generator: Adobe Illustrator 19.0.0, SVG Export Plug-In . SVG Version: 6.00 Build 0)  -->
<svg xmlns="http://www.w3.org/2000/svg" xmlns:xlink="http://www.w3.org/1999/xlink" version="1.1" id="Capa_1" x="0px" y="0px" viewBox="0 0 512 512" style="enable-background:new 0 0 512 512;" xml:space="preserve">
<g>
	<g>
		<path d="M90,90v150h150V90H90z M195,180h-15v15c0,8.291-6.709,15-15,15s-15-6.709-15-15v-15h-15c-8.291,0-15-6.709-15-15    s6.709-15,15-15h15v-15c0-8.291,6.709-15,15-15s15,6.709,15,15v15h15c8.291,0,15,6.709,15,15S203.291,180,195,180z"/>
	</g>
</g>
<g>
	<g>
		<path d="M272,272v150h150V272H272z M377,392h-60c-8.291,0-15-6.709-15-15c0-8.291,6.709-15,15-15h60c8.291,0,15,6.709,15,15    C392,385.291,385.291,392,377,392z M377,332h-60c-8.291,0-15-6.709-15-15c0-8.291,6.709-15,15-15h60c8.291,0,15,6.709,15,15    C392,325.291,385.291,332,377,332z"/>
	</g>
</g>
<g>
	<g>
		<path d="M90,272v150h150V272H90z M196.816,357.605c5.859,5.859,5.859,15.352,0,21.211c-2.93,2.93-6.768,4.395-10.605,4.395    s-7.676-1.465-10.605-4.395L165,368.211l-10.605,10.605c-2.93,2.93-6.768,4.395-10.605,4.395c-3.837,0-7.676-1.465-10.605-4.395    c-5.859-5.859-5.859-15.352,0-21.211L143.789,347l-10.605-10.605c-5.859-5.859-5.859-15.352,0-21.211s15.352-5.859,21.211,0    L165,325.789l10.605-10.605c5.859-5.859,15.352-5.859,21.211,0c5.859,5.859,5.859,15.352,0,21.211L186.211,347L196.816,357.605z"/>
	</g>
</g>
<g>
	<g>
		<path d="M272,90v150h150V90H272z M377,180h-60c-8.291,0-15-6.709-15-15s6.709-15,15-15h60c8.291,0,15,6.709,15,15    S385.291,180,377,180z"/>
	</g>
</g>
<g>
	<g>
		<path d="M467,0H45C20.186,0,0,20.186,0,45v421c0,24.814,20.186,46,45,46h422c24.814,0,45-20.186,45-45V45    C512,20.186,491.814,0,467,0z M452,437c0,8.291-6.709,15-15,15c-15.88,0-346.12,0-362,0c-8.291,0-15-6.709-15-15    c0-15.88,0-346.12,0-362c0-8.291,6.709-15,15-15c15.88,0,346.12,0,362,0c8.291,0,15,6.709,15,15C452,90.88,452,421.12,452,437z"/>
	</g>
</g>
<g>
</g>
<g>
</g>
<g>
</g>
<g>
</g>
<g>
</g>
<g>
</g>
<g>
</g>
<g>
</g>
<g>
</g>
<g>
</g>
<g>
</g>
<g>
</g>
<g>
</g>
<g>
</g>
<g>
</g>
</svg>
