<?xml version="1.0" encoding="iso-8859-1"?>
<!-- Generator: Adobe Illustrator 19.0.0, SVG Export Plug-In . SVG Version: 6.00 Build 0)  -->
<svg xmlns="http://www.w3.org/2000/svg" xmlns:xlink="http://www.w3.org/1999/xlink" version="1.1" id="Capa_1" x="0px" y="0px" viewBox="0 0 512 512" style="enable-background:new 0 0 512 512;" xml:space="preserve">
<g>
	<g>
		<path d="M464.685,378.476l-221.891-97.977c-3.757-1.659-6.947-4.377-9.18-7.823L222.804,256L101.907,69.499    c-4.145-6.395-13.053-7.54-18.666-2.388C30.744,115.292,0,184.485,0,256c0,141.385,114.615,256,256,256    c33.191,0,66.796-6.305,97.434-19.204c47.867-19.719,88.446-53.527,116.568-96.264    C474.192,390.164,471.658,381.555,464.685,378.476z"/>
	</g>
</g>
<g>
	<g>
		<path d="M411.562,52.686C368.445,19.644,314.52,0,256,0c-45.945,0-89.058,12.11-126.331,33.306    c-6.171,3.509-8.134,11.478-4.272,17.434l116.287,179.313c3.25,5.011,10.307,5.714,14.482,1.444L412.933,71.125    C418.119,65.819,417.451,57.199,411.562,52.686z"/>
	</g>
</g>
<g>
	<g>
		<path d="M452.948,92.469c-4.67-5.618-13.182-5.954-18.288-0.73L279.689,250.287c-1.602,1.639-2.438,3.663-2.61,5.713    c-0.314,3.768,1.656,7.622,5.508,9.324l196.862,86.954c6.518,2.879,14.07-0.371,16.556-7.05C506.341,317.443,512,287.384,512,256    C512,193.816,489.818,136.822,452.948,92.469z"/>
	</g>
</g>
<g>
</g>
<g>
</g>
<g>
</g>
<g>
</g>
<g>
</g>
<g>
</g>
<g>
</g>
<g>
</g>
<g>
</g>
<g>
</g>
<g>
</g>
<g>
</g>
<g>
</g>
<g>
</g>
<g>
</g>
</svg>
