<?xml version="1.0" encoding="iso-8859-1"?>
<!-- Generator: Adobe Illustrator 19.0.0, SVG Export Plug-In . SVG Version: 6.00 Build 0)  -->
<svg xmlns="http://www.w3.org/2000/svg" xmlns:xlink="http://www.w3.org/1999/xlink" version="1.1" id="Capa_1" x="0px" y="0px" viewBox="0 0 512 512" style="enable-background:new 0 0 512 512;" xml:space="preserve">
<g>
	<g>
		<path d="M437,362H75c-41.4,0-75,33.6-75,75c0,41.4,33.6,75,75,75h362c41.4,0,75-33.6,75-75C512,395.6,478.4,362,437,362z M135,452    h-30c-8.401,0-15-6.601-15-15c0-8.401,6.599-15,15-15h30c8.401,0,15,6.599,15,15C150,445.399,143.401,452,135,452z M225,452h-30    c-8.401,0-15-6.601-15-15c0-8.401,6.599-15,15-15h30c8.401,0,15,6.599,15,15C240,445.399,233.401,452,225,452z M317,452h-30    c-8.401,0-15-6.601-15-15c0-8.401,6.599-15,15-15h30c8.401,0,15,6.599,15,15C332,445.399,325.401,452,317,452z M407,452h-30    c-8.401,0-15-6.601-15-15c0-8.401,6.599-15,15-15h30c8.401,0,15,6.599,15,15C422,445.399,415.401,452,407,452z"/>
	</g>
</g>
<g>
	<g>
		<path d="M320.099,150.3c0.084-0.093,0.145-0.207,0.229-0.3c-4.555,0-124.887,0-132.156,0c0.086,0.093,0.143,0.207,0.229,0.3    C133.5,153.6,90,199.2,90,255v60c0,8.399,6.599,15,15,15h45v-45c0-8.401,6.599-15,15-15s15,6.599,15,15v45h150v-45    c0-8.401,6.599-15,15-15s15,6.599,15,15v45h45c8.401,0,15-6.601,15-15v-60C420,198.9,375.601,152.699,320.099,150.3z"/>
	</g>
</g>
<g>
	<g>
		<path d="M255,0c-41.353,0-75,33.647-75,75c0,40.627,33.066,75,74.707,75h4.336l0.439-0.029    c38.423-2.256,69.39-36.065,70.518-77.798C328.843,31.699,295.913,0,255,0z"/>
	</g>
</g>
<g>
</g>
<g>
</g>
<g>
</g>
<g>
</g>
<g>
</g>
<g>
</g>
<g>
</g>
<g>
</g>
<g>
</g>
<g>
</g>
<g>
</g>
<g>
</g>
<g>
</g>
<g>
</g>
<g>
</g>
</svg>
