<?xml version="1.0" encoding="iso-8859-1"?>
<!-- Generator: Adobe Illustrator 19.0.0, SVG Export Plug-In . SVG Version: 6.00 Build 0)  -->
<svg xmlns="http://www.w3.org/2000/svg" xmlns:xlink="http://www.w3.org/1999/xlink" version="1.1" id="Capa_1" x="0px" y="0px" viewBox="0 0 512 512" style="enable-background:new 0 0 512 512;" xml:space="preserve">
<g>
	<g>
		<path d="M462.967,462.928l-24.55-271C436.293,168.593,417.03,151,393.607,151H361v-46C361,47.109,313.891,0,256,0    S151,47.109,151,105v46h-32.607c-23.423,0-42.686,17.593-44.81,40.928l-24.551,271C46.64,489.246,67.406,512,93.856,512h324.287    C444.569,512,465.362,489.269,462.967,462.928z M346,241c8.276,0,15,6.724,15,15s-6.724,15-15,15s-15-6.724-15-15    S337.724,241,346,241z M181,105c0-41.353,33.647-75,75-75c41.353,0,75,33.647,75,75v46H181V105z M166,241c8.276,0,15,6.724,15,15    s-6.724,15-15,15s-15-6.724-15-15S157.724,241,166,241z M418.143,482H93.856c-8.846,0-15.759-7.57-14.941-16.348L80.156,452    h351.687l1.241,13.652C433.901,474.423,426.995,482,418.143,482z"/>
	</g>
</g>
<g>
</g>
<g>
</g>
<g>
</g>
<g>
</g>
<g>
</g>
<g>
</g>
<g>
</g>
<g>
</g>
<g>
</g>
<g>
</g>
<g>
</g>
<g>
</g>
<g>
</g>
<g>
</g>
<g>
</g>
</svg>
