<?xml version="1.0" encoding="iso-8859-1"?>
<!-- Generator: Adobe Illustrator 19.0.0, SVG Export Plug-In . SVG Version: 6.00 Build 0)  -->
<svg xmlns="http://www.w3.org/2000/svg" xmlns:xlink="http://www.w3.org/1999/xlink" version="1.1" id="Capa_1" x="0px" y="0px" viewBox="0 0 512 512" style="enable-background:new 0 0 512 512;" xml:space="preserve">
<g>
	<g>
		<path d="M466,45V15c0-8.291-6.709-15-15-15H61c-8.291,0-15,6.709-15,15v30c0,19.53,12.578,36.024,30,42.237v337.526    C58.578,430.976,46,447.47,46,467v30c0,8.291,6.709,15,15,15h390c8.291,0,15-6.709,15-15v-30c0-19.53-12.578-36.024-30-42.237    V87.237C453.422,81.024,466,64.53,466,45z M166,90h180v42.299l-8.965,6.674C336.874,139.091,320.351,151,301,151    c-19.336,0-35.933-11.953-36.035-12.026C263.969,138.241,240.487,121,211,121c-18.995,0-35.394,7.121-45,12.407V90z M136,422h-30    V90h30v61c0,39.546,21.88,82.557,63.115,105C161.728,276.349,136,315.522,136,361V422z M346,382.302    C323.687,350.563,291.314,331,256,331c-35.316,0-67.685,19.568-90,51.306V361c0-44.493,32.523-81.292,75-88.484V286    c0,8.291,6.709,15,15,15s15-6.709,15-15v-13.484c42.477,7.192,75,43.991,75,88.484V382.302z M406,422h-30v-61    c0-45.478-25.728-84.651-63.115-105C350.272,235.651,376,196.478,376,151V90h30V422z"/>
	</g>
</g>
<g>
</g>
<g>
</g>
<g>
</g>
<g>
</g>
<g>
</g>
<g>
</g>
<g>
</g>
<g>
</g>
<g>
</g>
<g>
</g>
<g>
</g>
<g>
</g>
<g>
</g>
<g>
</g>
<g>
</g>
</svg>
