<?xml version="1.0" encoding="iso-8859-1"?>
<!-- Generator: Adobe Illustrator 19.0.0, SVG Export Plug-In . SVG Version: 6.00 Build 0)  -->
<svg xmlns="http://www.w3.org/2000/svg" xmlns:xlink="http://www.w3.org/1999/xlink" version="1.1" id="Capa_1" x="0px" y="0px" viewBox="0 0 512 512" style="enable-background:new 0 0 512 512;" xml:space="preserve">
<g>
	<g>
		<path d="M256,152c-74.443,0-135,60.557-135,135s60.557,135,135,135s135-60.557,135-135S330.443,152,256,152z M312.924,364.051    l-84.844-42.422c-2.9-1.45-5.259-3.809-6.709-6.709l-42.422-84.844c-6.431-12.861,7.306-26.586,20.127-20.127l84.844,42.422    c2.9,1.45,5.259,3.809,6.709,6.709l42.422,84.844C339.483,356.787,325.761,370.47,312.924,364.051z"/>
	</g>
</g>
<g>
	<g>
		<path d="M296.71,65.878C299.394,60.118,301,51.764,301,45c0-24.814-20.186-45-45-45c-24.814,0-45,20.186-45,45    c0,6.764,1.606,15.118,4.29,20.878C110.612,85.112,31,176.844,31,287c0,124.072,100.928,225,225,225s225-100.928,225-225    C481,176.844,401.388,85.112,296.71,65.878z M256,30c8.276,0,15,6.724,15,15s-6.724,17-15,17s-15-8.724-15-17S247.724,30,256,30z     M256,452c-90.981,0-165-74.019-165-165s74.019-165,165-165s165,74.019,165,165S346.981,452,256,452z"/>
	</g>
</g>
<g>
	<g>
		<polygon points="266.032,276.968 225.904,256.904 245.968,297.032 286.096,317.096   "/>
	</g>
</g>
<g>
</g>
<g>
</g>
<g>
</g>
<g>
</g>
<g>
</g>
<g>
</g>
<g>
</g>
<g>
</g>
<g>
</g>
<g>
</g>
<g>
</g>
<g>
</g>
<g>
</g>
<g>
</g>
<g>
</g>
</svg>
