<?xml version="1.0" encoding="iso-8859-1"?>
<!-- Generator: Adobe Illustrator 19.0.0, SVG Export Plug-In . SVG Version: 6.00 Build 0)  -->
<svg xmlns="http://www.w3.org/2000/svg" xmlns:xlink="http://www.w3.org/1999/xlink" version="1.1" id="Capa_1" x="0px" y="0px" viewBox="0 0 512 512" style="enable-background:new 0 0 512 512;" xml:space="preserve">
<g>
	<g>
		<path d="M500.647,212.454l-26.536-6.138c-5.596-24.404-15.088-47.358-28.301-68.467l12.964-21.621    c3.545-5.903,2.607-13.462-2.256-18.325l-42.422-42.422c-4.863-4.863-12.422-5.801-18.325-2.256L374.15,66.189    c-21.108-13.213-44.063-22.705-68.467-28.301l-6.138-26.536C297.876,4.688,291.885,0,285,0h-60    c-6.885,0-12.876,4.688-14.546,11.353l-6.138,26.536c-24.404,5.596-47.358,15.088-68.467,28.301l-21.621-12.964    c-5.918-3.545-13.477-2.607-18.325,2.256L53.481,97.903c-4.863,4.863-5.801,12.422-2.256,18.325l12.964,21.621    c-13.213,21.108-22.705,44.063-28.301,68.467l-24.536,6.138C4.688,214.124,0,220.115,0,227v60c0,6.885,4.688,12.876,11.353,14.546    l24.536,6.138c5.596,24.404,15.088,47.358,28.301,68.467l-12.964,21.621c-3.545,5.903-2.607,13.462,2.256,18.325l42.422,42.422    c4.849,4.893,12.393,5.786,18.325,2.256l21.621-12.964c21.108,13.213,44.063,22.705,68.467,28.301l6.138,24.536    C212.124,507.313,218.115,512,225,512h60c6.885,0,12.876-4.688,14.546-11.353l6.138-24.536    c24.404-5.596,47.358-15.088,68.467-28.301l21.621,12.964c5.903,3.53,13.462,2.607,18.325-2.256l42.422-42.422    c4.863-4.863,5.801-12.422,2.256-18.325l-12.964-21.621c13.213-21.108,22.705-44.063,28.301-68.467l26.536-6.138    C507.313,299.876,512,293.885,512,287v-60C512,220.115,507.313,214.124,500.647,212.454z M255,392c-74.443,0-135-60.557-135-135    s60.557-135,135-135s135,60.557,135,135S329.443,392,255,392z"/>
	</g>
</g>
<g>
	<g>
		<path d="M255,152c-57.891,0-105,47.109-105,105s47.109,105,105,105s105-47.109,105-105S312.891,152,255,152z M255,332    c-41.353,0-75-33.647-75-75c0-41.353,33.647-75,75-75c41.353,0,75,33.647,75,75C330,298.353,296.353,332,255,332z"/>
	</g>
</g>
<g>
</g>
<g>
</g>
<g>
</g>
<g>
</g>
<g>
</g>
<g>
</g>
<g>
</g>
<g>
</g>
<g>
</g>
<g>
</g>
<g>
</g>
<g>
</g>
<g>
</g>
<g>
</g>
<g>
</g>
</svg>
