<?xml version="1.0" encoding="iso-8859-1"?>
<!-- Generator: Adobe Illustrator 19.0.0, SVG Export Plug-In . SVG Version: 6.00 Build 0)  -->
<svg xmlns="http://www.w3.org/2000/svg" xmlns:xlink="http://www.w3.org/1999/xlink" version="1.1" id="Capa_1" x="0px" y="0px" viewBox="0 0 512 512" style="enable-background:new 0 0 512 512;" xml:space="preserve">
<g>
	<g>
		<path d="M256,151c-8.276,0-15,6.724-15,15s6.724,15,15,15s15-6.724,15-15S264.276,151,256,151z"/>
	</g>
</g>
<g>
	<g>
		<path d="M376,241c-8.276,0-15,6.724-15,15s6.724,15,15,15s15-6.724,15-15S384.276,241,376,241z"/>
	</g>
</g>
<g>
	<g>
		<path d="M136,241c-8.276,0-15,6.724-15,15s6.724,15,15,15s15-6.724,15-15S144.276,241,136,241z"/>
	</g>
</g>
<g>
	<g>
		<path d="M0,422v45c0,24.814,20.186,45,45,45h422c24.814,0,45-20.186,45-45v-45H0z"/>
	</g>
</g>
<g>
	<g>
		<path d="M467,0H45C20.186,0,0,20.186,0,45v346h512V45C512,20.186,491.814,0,467,0z M151,298.237V346c0,8.291-6.709,15-15,15    s-15-6.709-15-15v-47.763C103.578,292.024,91,275.53,91,256c0-19.53,12.578-36.024,30-42.237V75c0-8.291,6.709-15,15-15    s15,6.709,15,15v138.763c17.422,6.213,30,22.707,30,42.237C181,275.53,168.422,292.024,151,298.237z M271,208.237V346    c0,8.291-6.709,15-15,15c-8.291,0-15-6.709-15-15V208.237c-17.422-6.213-30-22.707-30-42.237c0-19.53,12.578-36.024,30-42.237V75    c0-8.291,6.709-15,15-15s15,6.709,15,15v48.763c17.422,6.213,30,22.707,30,42.237C301,185.53,288.422,202.024,271,208.237z     M391,298.237V346c0,8.291-6.709,15-15,15c-8.291,0-15-6.709-15-15v-47.763c-17.422-6.213-30-22.707-30-42.237    c0-19.53,12.578-36.024,30-42.237V75c0-8.291,6.709-15,15-15c8.291,0,15,6.709,15,15v138.763c17.422,6.213,30,22.707,30,42.237    C421,275.53,408.422,292.024,391,298.237z"/>
	</g>
</g>
<g>
</g>
<g>
</g>
<g>
</g>
<g>
</g>
<g>
</g>
<g>
</g>
<g>
</g>
<g>
</g>
<g>
</g>
<g>
</g>
<g>
</g>
<g>
</g>
<g>
</g>
<g>
</g>
<g>
</g>
</svg>
