<?xml version="1.0" encoding="iso-8859-1"?>
<!-- Generator: Adobe Illustrator 19.0.0, SVG Export Plug-In . SVG Version: 6.00 Build 0)  -->
<svg xmlns="http://www.w3.org/2000/svg" xmlns:xlink="http://www.w3.org/1999/xlink" version="1.1" id="Capa_1" x="0px" y="0px" viewBox="0 0 512 512" style="enable-background:new 0 0 512 512;" xml:space="preserve">
<g>
	<g>
		<path d="M359.099,36.874c-38.699-31.5-89.7-43.5-139.199-33.299c-109.575,22.53-164.659,149.851-106.5,245.4    c40.653,67.751,36.6,116.269,36.6,152.6c0,23.099,12.001,41.4,30,47.398v18.001c0,24.814,20.186,45,45,45h60    c24.814,0,45-20.186,45-45v-17.701c17.401-6,30-22.8,30-42.299c0-38.519-4.543-93.002,35.099-155.299    C439.091,180.8,423.35,89.169,359.099,36.874z M214.501,184.473c5.7-5.999,15.298-5.999,20.999,0l19.5,19.201l19.501-19.201    c5.7-5.999,15.298-5.999,20.999,0c6,5.7,6,15.3,0,21L270,230.975v71h-30v-71l-25.499-25.501    C208.5,199.774,208.5,190.173,214.501,184.473z M300,466.974c0,8.276-6.724,15-15,15h-60c-8.276,0-15-6.724-15-15v-15h90V466.974z     M330.3,361.974H179.7c-0.3-9.9-1.5-19.801-3.3-30h157.2C331.5,341.873,330.601,352.074,330.3,361.974z"/>
	</g>
</g>
<g>
	<g>
		<path d="M497,181.974h-30c-8.291,0-15,6.709-15,15s6.709,15,15,15h30c8.291,0,15-6.709,15-15S505.291,181.974,497,181.974z"/>
	</g>
</g>
<g>
	<g>
		<path d="M507.605,96.369c-5.859-5.859-15.352-5.859-21.211,0l-30,30c-5.859,5.859-5.859,15.352,0,21.211    c5.86,5.859,15.352,5.859,21.211,0l30-30C513.464,111.721,513.464,102.228,507.605,96.369z"/>
	</g>
</g>
<g>
	<g>
		<path d="M507.605,276.369l-30-30c-5.859-5.859-15.352-5.859-21.211,0c-5.859,5.859-5.859,15.352,0,21.211l30,30    c5.859,5.859,15.351,5.86,21.211,0C513.464,291.721,513.464,282.228,507.605,276.369z"/>
	</g>
</g>
<g>
	<g>
		<path d="M45,181.974H15c-8.291,0-15,6.709-15,15s6.709,15,15,15h30c8.291,0,15-6.709,15-15S53.291,181.974,45,181.974z"/>
	</g>
</g>
<g>
	<g>
		<path d="M55.605,126.369l-30-30c-5.859-5.859-15.352-5.859-21.211,0s-5.859,15.352,0,21.211l30,30    c5.859,5.859,15.351,5.86,21.211,0C61.464,141.721,61.464,132.228,55.605,126.369z"/>
	</g>
</g>
<g>
	<g>
		<path d="M55.606,246.369c-5.859-5.859-15.352-5.86-21.211,0l-30,30c-5.859,5.859-5.859,15.352,0,21.211s15.351,5.86,21.211,0    l30-30C61.465,261.721,61.465,252.228,55.606,246.369z"/>
	</g>
</g>
<g>
</g>
<g>
</g>
<g>
</g>
<g>
</g>
<g>
</g>
<g>
</g>
<g>
</g>
<g>
</g>
<g>
</g>
<g>
</g>
<g>
</g>
<g>
</g>
<g>
</g>
<g>
</g>
<g>
</g>
</svg>
