<?xml version="1.0" encoding="iso-8859-1"?>
<!-- Generator: Adobe Illustrator 19.0.0, SVG Export Plug-In . SVG Version: 6.00 Build 0)  -->
<svg xmlns="http://www.w3.org/2000/svg" xmlns:xlink="http://www.w3.org/1999/xlink" version="1.1" id="Capa_1" x="0px" y="0px" viewBox="0 0 512 512" style="enable-background:new 0 0 512 512;" xml:space="preserve">
<g>
	<g>
		<polygon points="346,247.211 202.211,391 391,391 391,292.211   "/>
	</g>
</g>
<g>
	<g>
		<path d="M256,181c-8.276,0-15,6.724-15,15s6.724,15,15,15s15-6.724,15-15S264.276,181,256,181z"/>
	</g>
</g>
<g>
	<g>
		<polygon points="196.952,275.468 121,345.101 121,391 159.789,391 241.738,309.051   "/>
	</g>
</g>
<g>
	<g>
		<path d="M121,121v183.398l64.863-59.458c5.332-4.893,13.359-5.273,19.131-0.938l58.165,43.627l72.235-72.235    c5.859-5.859,15.352-5.859,21.211,0L391,249.789V121H121z M256,241c-24.814,0-45-20.186-45-45c0-24.814,20.186-45,45-45    c24.814,0,45,20.186,45,45C301,220.814,280.814,241,256,241z"/>
	</g>
</g>
<g>
	<g>
		<path d="M497,91c8.291,0,15-6.709,15-15V15c0-8.291-6.709-15-15-15h-61c-8.291,0-15,6.709-15,15c0,8.276-6.724,15-15,15    s-15-6.724-15-15c0-8.291-6.709-15-15-15h-90c-8.291,0-15,6.709-15,15c0,8.276-6.724,15-15,15s-15-6.724-15-15    c0-8.291-6.709-15-15-15h-90c-8.291,0-15,6.709-15,15c0,8.276-6.724,15-15,15s-15-6.724-15-15c0-8.291-6.709-15-15-15H15    C6.709,0,0,6.709,0,15v61c0,8.291,6.709,15,15,15c8.276,0,15,6.724,15,15s-6.724,15-15,15c-8.291,0-15,6.709-15,15v90    c0,8.291,6.709,15,15,15c8.276,0,15,6.724,15,15s-6.724,15-15,15c-8.291,0-15,6.709-15,15v90c0,8.291,6.709,15,15,15    c8.276,0,15,6.724,15,15s-6.724,15-15,15c-8.291,0-15,6.709-15,15v61c0,8.291,6.709,15,15,15h61c8.291,0,15-6.709,15-15    c0-8.276,6.724-15,15-15s15,6.724,15,15c0,8.291,6.709,15,15,15h90c8.291,0,15-6.709,15-15c0-8.276,6.724-15,15-15s15,6.724,15,15    c0,8.291,6.709,15,15,15h90c8.291,0,15-6.709,15-15c0-8.276,6.724-15,15-15s15,6.724,15,15c0,8.291,6.709,15,15,15h61    c8.291,0,15-6.709,15-15v-61c0-8.291-6.709-15-15-15c-8.276,0-15-6.724-15-15s6.724-15,15-15c8.291,0,15-6.709,15-15v-90    c0-8.291-6.709-15-15-15c-8.276,0-15-6.724-15-15s6.724-15,15-15c8.291,0,15-6.709,15-15v-90c0-8.291-6.709-15-15-15    c-8.276,0-15-6.724-15-15S488.724,91,497,91z M421,406c0,8.291-6.709,15-15,15H106c-8.291,0-15-6.709-15-15V106    c0-8.291,6.709-15,15-15h300c8.291,0,15,6.709,15,15V406z"/>
	</g>
</g>
<g>
</g>
<g>
</g>
<g>
</g>
<g>
</g>
<g>
</g>
<g>
</g>
<g>
</g>
<g>
</g>
<g>
</g>
<g>
</g>
<g>
</g>
<g>
</g>
<g>
</g>
<g>
</g>
<g>
</g>
</svg>
