<?xml version="1.0" encoding="iso-8859-1"?>
<!-- Generator: Adobe Illustrator 19.0.0, SVG Export Plug-In . SVG Version: 6.00 Build 0)  -->
<svg xmlns="http://www.w3.org/2000/svg" xmlns:xlink="http://www.w3.org/1999/xlink" version="1.1" id="Capa_1" x="0px" y="0px" viewBox="0 0 512 512" style="enable-background:new 0 0 512 512;" xml:space="preserve">
<g>
	<g>
		<path d="M497,211h-30c-8.291,0-15,6.709-15,15s6.709,15,15,15h30c8.291,0,15-6.709,15-15S505.291,211,497,211z"/>
	</g>
</g>
<g>
	<g>
		<path d="M507.605,125.394c-5.859-5.859-15.352-5.859-21.211,0l-30,30c-5.859,5.859-5.859,15.352,0,21.211    c5.86,5.86,15.352,5.86,21.211,0l30-30C513.464,140.746,513.464,131.253,507.605,125.394z"/>
	</g>
</g>
<g>
	<g>
		<path d="M507.605,305.395l-30-30c-5.859-5.859-15.352-5.859-21.211,0s-5.859,15.352,0,21.211l30,30    c5.859,5.859,15.351,5.86,21.211,0C513.464,320.747,513.464,311.254,507.605,305.395z"/>
	</g>
</g>
<g>
	<g>
		<path d="M376,31h-30c-0.037,0-0.066,0.02-0.103,0.02c-0.183,0.002-0.346,0.101-0.529,0.108    c-5.995,0.263,4.304-4.825-153.523,89.872H106C48.109,121,0,168.109,0,226c0,52.755,40.25,96.127,91,103.484V436    c0,24.814,20.186,45,45,45c24.814,0,45-20.186,45-45V331h10.845C347.382,424.323,340.129,421,346,421h30c24.814,0,45-20.186,45-45    V76C421,51.186,400.814,31,376,31z M181,301c-10.856,0-19.144,0-30,0V151h30V301z M391,376c0,8.276-6.724,15-15,15h-15V61h15    c8.276,0,15,6.724,15,15V376z"/>
	</g>
</g>
<g>
</g>
<g>
</g>
<g>
</g>
<g>
</g>
<g>
</g>
<g>
</g>
<g>
</g>
<g>
</g>
<g>
</g>
<g>
</g>
<g>
</g>
<g>
</g>
<g>
</g>
<g>
</g>
<g>
</g>
</svg>
