<?xml version="1.0" encoding="iso-8859-1"?>
<!-- Generator: Adobe Illustrator 19.0.0, SVG Export Plug-In . SVG Version: 6.00 Build 0)  -->
<svg xmlns="http://www.w3.org/2000/svg" xmlns:xlink="http://www.w3.org/1999/xlink" version="1.1" id="Capa_1" x="0px" y="0px" viewBox="0 0 512 512" style="enable-background:new 0 0 512 512;" xml:space="preserve">
<g>
	<g>
		<path d="M255.999,179.942c-8.276,0-14.999,6.724-14.999,14.999s6.724,14.999,14.999,14.999c8.276,0,14.999-6.724,14.999-14.999    S264.276,179.942,255.999,179.942z"/>
	</g>
</g>
<g>
	<g>
		<rect x="300.995" y="329.934" width="59.997" height="61.997"/>
	</g>
</g>
<g>
	<g>
		<path d="M496.987,481.927h-44.998V267.25c18.608,6.602,37.637,0.396,49.172-13.029c16.314-19.069,13.831-47.42-4.893-63.439    L285.28,10.776c-16.651-14.264-41.911-14.278-58.561,0.015L15.729,190.767c-18.862,16.167-21.097,44.516-4.878,63.469    c12.448,14.49,32.157,18.996,49.157,12.998v214.693H15.011c-8.401,0-14.999,6.599-14.999,14.999    c0,8.399,6.599,14.999,14.999,14.999c17.448,0,462.856,0,481.975,0c8.401,0,14.999-6.601,14.999-14.999    C511.986,488.527,505.387,481.927,496.987,481.927z M241,481.927h-29.998V329.935h-59.997v151.992h-29.998V314.935    c0-8.401,6.599-14.999,14.999-14.999h89.995c8.401,0,14.999,6.599,14.999,14.999V481.927z M211.001,194.942    c0-24.813,20.185-44.998,44.998-44.998c24.813,0,44.998,20.185,44.998,44.998s-20.185,44.998-44.998,44.998    C231.186,239.939,211.001,219.755,211.001,194.942z M390.992,406.931c0,8.291-6.709,14.999-14.999,14.999h-89.995    c-8.291,0-14.999-6.709-14.999-14.999v-91.995c0-8.291,6.709-14.999,14.999-14.999h89.995c8.291,0,14.999,6.709,14.999,14.999    V406.931z M265.755,73.674c-5.577-4.818-13.919-4.831-19.511,0C245.896,73.97,67.32,225.642,66.908,225.84    c-1,1-1.403,1.302-12.113,10.482c-6.328,5.376-15.79,4.658-21.166-1.611c-5.391-6.284-4.658-15.775,1.611-21.166L246.229,33.57    c5.654-4.863,13.886-4.849,19.54-0.015l210.989,180.006c6.27,5.376,7.002,14.867,1.626,21.137    c-4.497,5.273-11.615,9.784-21.166,1.641c-10.52-9.021-11.128-9.499-12.127-10.498C444.628,225.6,266.153,74.012,265.755,73.674z"/>
	</g>
</g>
<g>
</g>
<g>
</g>
<g>
</g>
<g>
</g>
<g>
</g>
<g>
</g>
<g>
</g>
<g>
</g>
<g>
</g>
<g>
</g>
<g>
</g>
<g>
</g>
<g>
</g>
<g>
</g>
<g>
</g>
</svg>
