<?xml version="1.0" encoding="iso-8859-1"?>
<!-- Generator: Adobe Illustrator 19.0.0, SVG Export Plug-In . SVG Version: 6.00 Build 0)  -->
<svg xmlns="http://www.w3.org/2000/svg" xmlns:xlink="http://www.w3.org/1999/xlink" version="1.1" id="Capa_1" x="0px" y="0px" viewBox="0 0 512 512" style="enable-background:new 0 0 512 512;" xml:space="preserve">
<g>
	<g>
		<path d="M345,422c-8.291,0-15,6.709-15,15v30c0,8.276-6.724,15-15,15H195c-8.276,0-15-6.724-15-15v-30c0-8.291-6.709-15-15-15    s-15,6.709-15,15v30c0,24.814,20.186,45,45,45h120c24.814,0,45-20.186,45-45v-30C360,428.709,353.291,422,345,422z"/>
	</g>
</g>
<g>
	<g>
		<path d="M470.452,173.91c-14.097-10.792-29.191-17.498-51.023-20.651C412.427,68.68,341.353,0,255,0    C168.593,0,97.621,68.797,90.687,153.447C39.608,160.511,0,204.011,0,257c0,57.891,47.109,105,105,105h105v45    c0,24.814,20.186,45,45,45c24.814,0,45-20.186,45-45v-45h105c57.891,0,107-47.109,107-105    C512,227.254,497.884,194.715,470.452,173.91z M325.605,267.605c-5.684,5.654-15.527,5.654-21.211,0l-8.789-8.789    c-9.328-9.36-25.605-2.826-25.605,10.605V407c0,8.276-6.724,15-15,15s-15-6.724-15-15V269.422    c0-13.395-16.224-19.986-25.605-10.605l-8.789,8.789c-5.859,5.859-15.352,5.859-21.211,0c-5.845-5.845-5.845-15.366,0-21.211    l60-60c5.859-5.859,15.352-5.859,21.211,0l60,60C331.45,252.239,331.45,261.761,325.605,267.605z"/>
	</g>
</g>
<g>
</g>
<g>
</g>
<g>
</g>
<g>
</g>
<g>
</g>
<g>
</g>
<g>
</g>
<g>
</g>
<g>
</g>
<g>
</g>
<g>
</g>
<g>
</g>
<g>
</g>
<g>
</g>
<g>
</g>
</svg>
