<?xml version="1.0" encoding="iso-8859-1"?>
<!-- Generator: Adobe Illustrator 19.0.0, SVG Export Plug-In . SVG Version: 6.00 Build 0)  -->
<svg xmlns="http://www.w3.org/2000/svg" xmlns:xlink="http://www.w3.org/1999/xlink" version="1.1" id="Capa_1" x="0px" y="0px" viewBox="0 0 512 512" style="enable-background:new 0 0 512 512;" xml:space="preserve">
<g>
	<g>
		<polygon points="136,130.386 136,212 241,212 241,98.086   "/>
	</g>
</g>
<g>
	<g>
		<path d="M136.656,242c3.143,71.038,42.705,133.777,104.344,167.201V242H136.656z"/>
	</g>
</g>
<g>
	<g>
		<path d="M271,242v167.201C332.639,375.777,372.201,313.038,375.344,242H271z"/>
	</g>
</g>
<g>
	<g>
		<path d="M455.409,60.659l-195-60c-2.871-0.879-5.947-0.879-8.818,0l-195,60C50.292,62.593,46,68.408,46,75v157.977    c0,128.657,82.617,240.512,205.591,278.364C253.026,511.78,254.506,512,256,512s2.974-0.22,4.409-0.659    C383.383,473.489,466,361.634,466,232.977V75C466,68.408,461.708,62.593,455.409,60.659z M406,232.977    c0,94.719-56.536,178.718-144.047,214.167c-1.915,0.776-3.543,1.252-5.953,1.252c-3.517,0-5.953-1.252-5.953-1.252    C162.536,411.695,106,327.695,106,232.977V119.312c0-6.592,4.292-12.407,10.591-14.341l135-41.528    c2.159-0.659,4.839-1.215,8.818,0l135,41.528c6.299,1.934,10.591,7.749,10.591,14.341V232.977z"/>
	</g>
</g>
<g>
	<g>
		<polygon points="271,98.086 271,212 376,212 376,130.386   "/>
	</g>
</g>
<g>
</g>
<g>
</g>
<g>
</g>
<g>
</g>
<g>
</g>
<g>
</g>
<g>
</g>
<g>
</g>
<g>
</g>
<g>
</g>
<g>
</g>
<g>
</g>
<g>
</g>
<g>
</g>
<g>
</g>
</svg>
