<?xml version="1.0" encoding="iso-8859-1"?>
<!-- Generator: Adobe Illustrator 19.0.0, SVG Export Plug-In . SVG Version: 6.00 Build 0)  -->
<svg xmlns="http://www.w3.org/2000/svg" xmlns:xlink="http://www.w3.org/1999/xlink" version="1.1" id="Capa_1" x="0px" y="0px" viewBox="0 0 512 512" style="enable-background:new 0 0 512 512;" xml:space="preserve">
<g>
	<g>
		<path d="M454.827,118.568c-5.859-5.859-15.352-5.859-21.211,0s-5.859,15.352,0,21.211c31.201,31.201,48.584,72.612,48.584,116.616    s-17.383,85.415-48.584,116.616c-5.859,5.859-5.859,15.352,0,21.211s15.351,5.86,21.211,0    C491.697,357.353,512,308.412,512,256.396S491.697,155.438,454.827,118.568z"/>
	</g>
</g>
<g>
	<g>
		<path d="M412.464,160.946c-5.859-5.859-15.352-5.859-21.211,0s-5.859,15.352,0,21.211c19.834,19.834,30.947,46.201,30.947,74.238    c0,28.052-11.113,54.419-30.947,74.253c-5.859,5.859-5.859,15.352,0,21.211s15.351,5.86,21.211,0    C437.967,326.371,452,292.46,452,256.396C452,220.332,437.967,186.435,412.464,160.946z"/>
	</g>
</g>
<g>
	<g>
		<path d="M316,31c-22.039,0-40.342,15.947-44.18,36.892L161.01,151H105c-19.53,0-36.024,12.578-42.237,30H45    c-24.814,0-45,20.186-45,45v60c0,24.814,20.186,45,45,45h17.763c6.213,17.422,22.707,30,42.237,30h56.01l110.81,83.108    C275.658,465.053,293.961,481,316,481c24.814,0,45-20.186,45-45V76C361,51.186,340.814,31,316,31z M151,331h-46    c-8.276,0-15-6.724-15-15V196c0-8.276,6.724-15,15-15h46V331z M331,436c0,8.276-6.724,15-15,15s-15-6.724-15-15V76    c0-8.276,6.724-15,15-15s15,6.724,15,15V436z"/>
	</g>
</g>
<g>
</g>
<g>
</g>
<g>
</g>
<g>
</g>
<g>
</g>
<g>
</g>
<g>
</g>
<g>
</g>
<g>
</g>
<g>
</g>
<g>
</g>
<g>
</g>
<g>
</g>
<g>
</g>
<g>
</g>
</svg>
