<?xml version="1.0" encoding="iso-8859-1"?>
<!-- Generator: Adobe Illustrator 19.0.0, SVG Export Plug-In . SVG Version: 6.00 Build 0)  -->
<svg xmlns="http://www.w3.org/2000/svg" xmlns:xlink="http://www.w3.org/1999/xlink" version="1.1" id="Capa_1" x="0px" y="0px" viewBox="0 0 512 512" style="enable-background:new 0 0 512 512;" xml:space="preserve">
<g>
	<g>
		<path d="M436,181h-45v-17.516v-30c0-46.701-23.859-87.898-60-112.147v67.147c0,8.291-6.709,15-15,15c-8.291,0-15-6.709-15-15    V6.777C291.436,3.367,281.41,1.17,271,0v88.484c0,8.291-6.709,15-15,15c-8.291,0-15-6.709-15-15V0    c-10.41,1.17-20.436,3.367-30,6.777v81.707c0,8.291-6.709,15-15,15s-15-6.709-15-15V21.337c-36.141,24.249-60,65.446-60,112.147    v30V181H76c-8.291,0-15,6.709-15,15v60c0,91.225,62.512,168.347,150,189.036V482h-15c-8.291,0-15,6.709-15,15    c0,8.291,6.709,15,15,15c12.802,0,107.206,0,120,0c8.291,0,15-6.709,15-15c0-8.291-6.709-15-15-15h-15v-36.964    C388.488,424.347,451,347.225,451,256v-60C451,187.709,444.291,181,436,181z M211,414.156C140.644,394.309,91,330.775,91,256v-45    h30c0,14.061,0,5.523,0,45c0,58.588,37.734,108.071,90,126.707V414.156z M151,211v-30h210v30H151z M421,256    c0,74.777-49.642,138.311-120,158.156v-31.448c52.266-18.636,90-68.119,90-126.707c0-27.349,0-35.181,0-37.105    c0-0.444,0-0.579,0-0.56c0-0.86,0-2.897,0-7.334h30V256z"/>
	</g>
</g>
<g>
</g>
<g>
</g>
<g>
</g>
<g>
</g>
<g>
</g>
<g>
</g>
<g>
</g>
<g>
</g>
<g>
</g>
<g>
</g>
<g>
</g>
<g>
</g>
<g>
</g>
<g>
</g>
<g>
</g>
</svg>
