<?xml version="1.0" encoding="iso-8859-1"?>
<!-- Generator: Adobe Illustrator 19.0.0, SVG Export Plug-In . SVG Version: 6.00 Build 0)  -->
<svg xmlns="http://www.w3.org/2000/svg" xmlns:xlink="http://www.w3.org/1999/xlink" version="1.1" id="Capa_1" x="0px" y="0px" viewBox="0 0 512 512" style="enable-background:new 0 0 512 512;" xml:space="preserve">
<g>
	<g>
		<path d="M91,91v270h330V91H91z M151,136c0-8.291,6.709-15,15-15h60c8.291,0,15,6.709,15,15v60c0,8.291-6.709,15-15,15h-60    c-8.291,0-15-6.709-15-15V136z M346,331H166c-8.291,0-15-6.709-15-15c0-8.291,6.709-15,15-15h180c8.291,0,15,6.709,15,15    C361,324.291,354.291,331,346,331z M346,271H166c-8.291,0-15-6.709-15-15c0-8.291,6.709-15,15-15h180c8.291,0,15,6.709,15,15    S354.291,271,346,271z M346,211h-60c-8.291,0-15-6.709-15-15s6.709-15,15-15h60c8.291,0,15,6.709,15,15S354.291,211,346,211z     M346,151h-60c-8.291,0-15-6.709-15-15s6.709-15,15-15h60c8.291,0,15,6.709,15,15S354.291,151,346,151z"/>
	</g>
</g>
<g>
	<g>
		<path d="M376,0H136c-24.814,0-45,20.186-45,45v15h330V45C421,20.186,400.814,0,376,0z"/>
	</g>
</g>
<g>
	<g>
		<rect x="181" y="151" width="30" height="30"/>
	</g>
</g>
<g>
	<g>
		<path d="M91,392v75c0,24.814,20.186,45,45,45h240c24.814,0,45-20.186,45-45v-75H91z M286,452h-60c-8.291,0-15-6.709-15-15    c0-8.291,6.709-15,15-15h60c8.291,0,15,6.709,15,15C301,445.291,294.291,452,286,452z"/>
	</g>
</g>
<g>
</g>
<g>
</g>
<g>
</g>
<g>
</g>
<g>
</g>
<g>
</g>
<g>
</g>
<g>
</g>
<g>
</g>
<g>
</g>
<g>
</g>
<g>
</g>
<g>
</g>
<g>
</g>
<g>
</g>
</svg>
